<mxfile host="Electron" modified="2023-04-16T19:15:26.743Z" agent="Mozilla/5.0 (X11; Linux x86_64) AppleWebKit/537.36 (KHTML, like Gecko) draw.io/21.1.2 Chrome/106.0.5249.199 Electron/21.4.3 Safari/537.36" etag="9EiMLcIWIs01xQPBgTtB" version="21.1.2" type="device">
  <diagram name="Page-1" id="MT_eSa0acJeNsID9RUIV">
    <mxGraphModel dx="354" dy="208" grid="1" gridSize="10" guides="1" tooltips="1" connect="1" arrows="1" fold="1" page="1" pageScale="1" pageWidth="850" pageHeight="1100" math="0" shadow="0">
      <root>
        <mxCell id="0" />
        <mxCell id="1" parent="0" />
        <mxCell id="NRAe5ARmB8Q0SLDfqDeR-1" value="df1" style="rounded=0;whiteSpace=wrap;html=1;" parent="1" vertex="1">
          <mxGeometry x="40" y="40" width="60" height="40" as="geometry" />
        </mxCell>
        <mxCell id="NRAe5ARmB8Q0SLDfqDeR-2" value="new df1" style="rounded=0;whiteSpace=wrap;html=1;" parent="1" vertex="1">
          <mxGeometry x="40" y="140" width="60" height="40" as="geometry" />
        </mxCell>
        <mxCell id="NRAe5ARmB8Q0SLDfqDeR-3" value="" style="endArrow=classic;html=1;rounded=0;exitX=0.5;exitY=1;exitDx=0;exitDy=0;entryX=0.5;entryY=0;entryDx=0;entryDy=0;" parent="1" source="NRAe5ARmB8Q0SLDfqDeR-1" target="NRAe5ARmB8Q0SLDfqDeR-2" edge="1">
          <mxGeometry relative="1" as="geometry">
            <mxPoint x="150" y="100" as="sourcePoint" />
            <mxPoint x="250" y="100" as="targetPoint" />
          </mxGeometry>
        </mxCell>
        <mxCell id="NRAe5ARmB8Q0SLDfqDeR-4" value="View" style="edgeLabel;resizable=0;html=1;align=center;verticalAlign=middle;" parent="NRAe5ARmB8Q0SLDfqDeR-3" connectable="0" vertex="1">
          <mxGeometry relative="1" as="geometry" />
        </mxCell>
        <mxCell id="NRAe5ARmB8Q0SLDfqDeR-5" value="&lt;p style=&quot;line-height: 100%; font-size: 10px;&quot;&gt;&lt;font style=&quot;font-size: 10px;&quot;&gt;Block Reference Tracker&lt;/font&gt;&lt;/p&gt;" style="rounded=1;whiteSpace=wrap;html=1;" parent="1" vertex="1">
          <mxGeometry x="190" y="40" width="60" height="40" as="geometry" />
        </mxCell>
        <mxCell id="NRAe5ARmB8Q0SLDfqDeR-6" value="" style="endArrow=classic;html=1;rounded=0;exitX=1;exitY=0.25;exitDx=0;exitDy=0;entryX=0;entryY=0.25;entryDx=0;entryDy=0;" parent="1" source="NRAe5ARmB8Q0SLDfqDeR-1" target="NRAe5ARmB8Q0SLDfqDeR-5" edge="1">
          <mxGeometry relative="1" as="geometry">
            <mxPoint x="260" y="240" as="sourcePoint" />
            <mxPoint x="360" y="240" as="targetPoint" />
          </mxGeometry>
        </mxCell>
        <mxCell id="NRAe5ARmB8Q0SLDfqDeR-8" value="" style="endArrow=classic;html=1;rounded=0;exitX=0;exitY=0.75;exitDx=0;exitDy=0;entryX=1;entryY=0.75;entryDx=0;entryDy=0;dashed=1;" parent="1" source="NRAe5ARmB8Q0SLDfqDeR-5" target="NRAe5ARmB8Q0SLDfqDeR-1" edge="1">
          <mxGeometry relative="1" as="geometry">
            <mxPoint x="260" y="240" as="sourcePoint" />
            <mxPoint x="360" y="240" as="targetPoint" />
          </mxGeometry>
        </mxCell>
        <mxCell id="NRAe5ARmB8Q0SLDfqDeR-12" value="" style="endArrow=classic;html=1;rounded=0;entryX=0;entryY=0.25;entryDx=0;entryDy=0;exitX=1;exitY=0.25;exitDx=0;exitDy=0;" parent="1" source="NRAe5ARmB8Q0SLDfqDeR-2" target="NRAe5ARmB8Q0SLDfqDeR-5" edge="1">
          <mxGeometry relative="1" as="geometry">
            <mxPoint x="130" y="120" as="sourcePoint" />
            <mxPoint x="190" y="150" as="targetPoint" />
          </mxGeometry>
        </mxCell>
        <mxCell id="NRAe5ARmB8Q0SLDfqDeR-14" value="" style="endArrow=classic;html=1;rounded=0;exitX=0;exitY=0.75;exitDx=0;exitDy=0;dashed=1;entryX=1;entryY=0.75;entryDx=0;entryDy=0;" parent="1" source="NRAe5ARmB8Q0SLDfqDeR-5" target="NRAe5ARmB8Q0SLDfqDeR-2" edge="1">
          <mxGeometry relative="1" as="geometry">
            <mxPoint x="190" y="170" as="sourcePoint" />
            <mxPoint x="140" y="220" as="targetPoint" />
          </mxGeometry>
        </mxCell>
        <mxCell id="kB_T1ozximr7JqJuL3QE-15" value="" style="shape=stencil(lVjLbttADPwaXwnuk9xzmv5HgDiNUdcOnPT196VqSPZyrTFycxSOSC6H5Kw26eH99eltu4n8/nE6ft/+3j1/vG7Sl02Mu8Pr9rT7sF+b9LhJDy/H0/bb6fjz8Hz+++1pspx+/Tj+mt7w54wLJGkCRf57fsAU6/8HX8/m+93hyrySSGeeSWXdPDDl3NkrJQb2maR29iFSBvGERiX2AKEAIrKAXQYxUkrrgMRUQg8Qag0AKnGfc0pUQEg5ELceoKQRAMpQhURV1wHFiso9wOqAAJm4p0WJVEHhiviQilEFeKiBUg+oTA0xL1MrPaBQQB7UU6M2SsCDRGLtAGKFA9SQMp/JAhCqCNDmiJd2CJQBlzSS9NRQSxrkoNVzSZViAYDm2dqYFFS6Bap9i7Y41/42IFHrK90ypQAA1bO1ldnnbYDVta90E0oZAmrxgIpCaqTqAWgIBGZil4RSBtwwF009QAG/p5j6Hp3OASdRxAPunGuMHtAQN5a5tUzjyzmsIXIYXKCY1E8mA0D6id9wBkArxQBlADAGZNcRitkkfjIZAHX1lIM7JZkX5eopDYCMOmLZB1eAiAFuMhkggI6wQwwDIGJ+l6FJy50mHcaAgtk3UU18HVBIt7tacFery7pBfTK15NCkBSeRsgcoCkn9Ir2MnjVAGTyg4TexefAAC/FpQBnqIHgyDYvUtgxcESb7nIdMBZySyrAiImw5zR6guHCmFdzYsG1fQR1MjWg/mExPoEpLnnt+ETR49AmT9CHZK6CKE1/p6RUgh5r80qoVDtc6tGg1gQ88mFDNTusqHH0mhaX3MMllJPDVD4Hc4GrPmXJPDZP8EdA7NU/vzJRAAyW7BvV1SCYsAfli89SIDd5qYpqV7QIwIQg8BPVqw56gzR7MQ08Nuz4GtCDmJXtRJ1CcFP/+CtU9zzRbEp61+Ip57Fd0gJxgfzkxHQ5Iyl4ABHj3GZomzO7WzHv24DsD+4NnuNLYy3mGN3T2eo2hmGL/iWFJ5jbLiH0wiDOBonjziMyLfzti8Ce/1tw1tx+XD0Mvu/3+/F3p+v/+Q5I9On+ESo//AA==);lineShape=1;strokeColor=#FF0000;" parent="1" vertex="1">
          <mxGeometry x="37.8358186107082" y="34.43441451464321" width="53.232753095798486" height="48.130120487724795" as="geometry" />
        </mxCell>
        <mxCell id="kB_T1ozximr7JqJuL3QE-16" value="" style="shape=stencil(lVjLctswDPwaXTHgmzyn6X9kJk7tqWtnHKdt/j5QNZRFUNrUN1legHguQA3u4W3/9LobLL9dL+efuz+H5+t+cN8Gaw+n/e5yuMrT4B4H9/Byvux+XM7vp+fp9+vTiByffp1/jxr+TnKlkHWjlOWP6Y2lwv9efJ/wx8NpiTeUY4P3VMo2Pnvy3OALBYBPYk9q8MZRBAYlS0kJFOK8LRADBdN6HCi6bYGQKLcuOEfeAwHWPnhDCZjkHdnQCIgKBk67WC2eBTKxBQJMoU2bhMGCPIxpbU+QQKMTbOd0SjUzqwImkmvDmi3FCAQcuTZxOdZUrgswZd8KFEqoWHUpFSku4HOqhTbjA3EAhUFR4SNl4IDXESqZHIoQ2RZvGNcR68oWOsigUJl81PgAcsxkisYb4LBY67TDAXTa7N2MT1RAwrievsA70Ppc//3PhDFFr/Ee6De1pRZ4C+w35Hs86oBq7dIeUA+WTOdvAgVnazku4mkh3meNzxiv9GfyoN7EHhWfAhtSKC1pfID5Sp3+DPQbXT9fN6RiXTmgwAYIXUNGwHAdSY/zHza8DpBw5F0NmWtJbeG7AgqwgW3XYAUSUOgKGhNKLhpv0RCrQ3SBNyD+9+JlAqj4e0igoSN0manA/tTVj1AYiL/MzzaeeV6O1v21er2UhRB2WNAZzmIRarFSGXDeOwIl1PNO5zhKj4EeGDfWtuvjvK+tL1uyYbY0FwI8wVvtg0+VCNYFui3ZFbg7hVh5ahYwNdDrW7LXG6bEzQGnk9HUJQseooo0U/ksYMiAKGWniy/VdWHrqqIXfTgshapyaxDDjXfcZVjj0dWp6Gkws98WPniFt1i/mk5c14UtvLrKMSWsv7R4A+OzmHU3AbS+jgcUhU8oYaUue7cEo2k/OswKj0p6nKVe4SO2x2s8um7cfff+Ei8Pt4v+y+F4nL4TLP/XHwbk1fRRwT1+Ag==);lineShape=1;strokeColor=#FF0000;" parent="1" vertex="1">
          <mxGeometry x="40.83695150131666" y="37.63480313809549" width="59.32783694639593" height="38.71594414677993" as="geometry" />
        </mxCell>
        <mxCell id="kB_T1ozximr7JqJuL3QE-19" value="" style="shape=stencil(fZbdcgIhDIWfZm8zQAg/17Z9j85U606tdqz9e/tmZ0c0uJ47xP0I5JwEBl59bp8/1kNwn6fj4W39M76ctgM/DCGM++36OJ50NPDjwKvN4bh+PR6+9i/z74/n6ctp9H74nlb4nbmSKZeJCu5vngmZ6jzzNAO7cX8FVKEsBuBKrgKg9oAE8gkCbLeUhEoEQKSUDZDLeWYRKIl8MEDRmHwfyBrBG6Amyu4+kDxxMoB3jhwgYu7TVAsVkFcWCs4CTBEoF4RctKeOxHIf8IXYpikHikAIf+MNUW94AGSSaoAoFIE3AlOyeWU+p2E5S9yfQZcQILVuQOwZdJNoS9Ls3wA5u2XZTIHECqeJ9kDpSaauRiNVcAY1QhdBzeLBli5WazpkSsBLV25uRaqWRyFawTQzRRIQYirJzq5atkBqLfouwqUxLBepthWb10vrWZY6UOAeyKCCtDV625mm9gmUC4Wc3VLJMMIE1BsA2FW9JraVlQB7n3c9oMKhCLEvIM1zBPZ25/umNQ1tVEC2G+fFCC8g398O2hNQuQlVu752DBfA+q0ptnqO5JFmeuIuo9DY7KjY71UxdJV4EntifPWorW++R/dC4t7V3DlIB5cHx2bc7eb3yvX//QNFp+bHDT/+Aw==);lineShape=1;" parent="1" vertex="1">
          <mxGeometry x="38.747184336990244" y="34.95012498340765" width="1.8690159088461769" height="1.8660944865430793" as="geometry" />
        </mxCell>
        <mxCell id="oX-gq8wNmQ9fSGi_F2Tz-5" value="" style="shape=stencil(lVjbUhsxDP2avGpk2ZbtZ9r+BzOEkiklTKC3v6+2GZtYmz2Ut2TXZ3U7unkXb14ebp/3O+GX19Px2/7X4e71YRc/7UQOTw/70+HVfu3i5128uT+e9l9Pxx9Pd+f/z7fLyeXX9+PP5Qu/z7hA0haQ8J/zAyYJ/x58OR9/PDxdHFfKMh3PJGn7eJD+up8PgYIAgBLP+oRMAShk+pZZo9CoApVMY60TQBLVtg2IJiFPAHvCEQAy1Vkle8IKAEPjAajU8jYgRcqzDUkoAqNT6V4fgEyxbgMyk+oMqCQIkHqYBjOYGgIUUkelSArioMHbkJUS4JImSrNbcyNmADCV5kibTCShrKihEQauRE8+NRsQQCnGGVCpAi6VSnlWyZRswK2VvZeKwHyoQuwkpC7zOiBSmm0wqwKgRk2eGqV0R18HWE6XGdAoFABQDzA3KKBGNWrMNixuANSoFofZrYsbkITm42BuKCCnG3tqmFWoLrXQuTkAlQLgUlsFzpSsIA7NNJ6rt8lEdakpySyhCTUQuLaqGiZTkQ2NdK5L9glotJlYPUBBBwrMvaoMhPkVWd26jRcAVPoM4P1q/MaAtAIgI+w1Vw9AVWDRePbrhR+2ECF5EQ25yZI+eEBBRhSKxQMiygijQvaBgAQvKzdVililMPfRxSpM8Liin6BA2PdcCik1UJlaXamkmH3V174FgNza/BBnAFS/DZDZG804g+oKgProQrWVWxsoA9ezOuMUqiv2wXrcesu5ACTQF+21iAdUpFLtXLtMOSTB2LxSCQJKz5dLlVAVsDitVEo4IT4IyCsyaS/pW10rOLpmXF1lFenYu/1W580u5awXI2oY+ZwEvHNYJ/fTwxhmNweaubja9IAqmb12dabivcmGsjbHYZmA0NiX+0T1vzNW8h3FprgMktoUkFmlMvre1qwb3GBZYBEwBdoc6ZI7Wa7P60ZmB0i9KV0HrJYUm9cFeMkUcAlkGwFaqZf53201o8dc35uaHyw1kwAbVP2MpUIFBM7WKreOKsPOvrx2u1+B07Ttks7onGHG2bbqxu8sMIFS8xLsSQYJlLRv3AMw1pbrAPEDU4pwq1muGWYvJYaVLyaf01HhdCKjQQ1AIAGRlrH0jOsZxTdGrTNnAALM6bcLpTG5WuVDo0DoZB4Agatc9qufwjizD3OAQWM/s4Ze+jeOs7rjKDXtuHMOHMRWQxJTBUnD/WNvx9FWwv7Gh+F1DPvLRn7H1OR1R0Sz1lLccVQf2NMSb0fsSyjD1hcoRH8cUOyDt7zvHrcfbxfK94fHx/N99OV7fwFtj86X1/HzXw==);lineShape=1;strokeColor=#FF0000;" parent="1" vertex="1">
          <mxGeometry x="124.34660826172882" y="39.71759626104179" width="41.79638048103243" height="36.32266468471577" as="geometry" />
        </mxCell>
        <mxCell id="oX-gq8wNmQ9fSGi_F2Tz-7" value="" style="shape=stencil(lVhJchsxDHyNrihwA8mz4/zDVZZjVRzLZTvb74OJipwhOOrENy0NDgg0gMYcws3b493L8eD57f31/PX483T//ngInw7en54fj6+nd/10CLeHcPNwfj1+eT1/f76/fH+5W5DLp2/nH8sJvy52tVJ0i5Xn35dfHNX894fPF/zT6XmLzxTDgPdUBeAjxTrgI5UA8J5SHPBCrgI8U+ABn6nwdXzJlGS8L5PzwCCSHx1ygRyIUGFKJqICXcpCMY8hZaoJGHjy4xN8arfaNRCNyXjpwBSRQWh/d4NEEbiUCslIi+iIQZ5TbH93A010uW4QK8kYpeRg4qJ67EeDRBVQST02VBKmDFwKmcLokiQKDhgEGyXRW6EnKDcNuwOVeN1A2c/jpXOGmdZydGkwUP4W4JL2B1PQWiEMqOEq8cjWIvAJS7mMFVcqefSESHnMQ9VUgks7PxloTSMDLcjxDtrXBLW91iI6PsE7Z9v1qsA2nFrT7XgtcYDXLmzO14IFxaNDYOSdzgnEO0dpwleUY+I64UFtMsmELyD+3PK/wQuozD4DNngP4snEbOOJ4s+2LBWPypIn/hRieL6ZysqHDEpGG1u1+ATatWtDeIOPkA/iJjzkQ53OF+C/TsAJX4H/3jYtjacHfPNWJSg+gxnud/jvAN98mxMbPIqPtz1U8RnwQeMfLR5JCkd+5I/jTvErBCpTwVTQUNgKiuUCuCCngg+wQRg5UfvY+e8CFnhf5yzeQ3yYCrLAgpSpoSfcED+Ej609bQcS8F+stFE8g/O1PRnCqbBAOp+yiU+Aas65lp7NjM/AIVXpqYwGDHW7S63jdNlRsCjom0Y3SK0q9ouYyY9JKwGSdNmtRtblClmkusD09WW5QC4VuxnocoF4EbSTGpHcpf++gViBKbGFYZ+p3CZd1+2dLPsG0fYKXS7QMIjFqqHEUMImbzOtywWDdp2mzSBoewTzUnzrJt0gUgAuiVh6a0kFcOnMrT93A30CkqTJahBV8mgGKjdNHrSkItqUfdPE3cDBTJeJS6Xp5n18sXdOMAvaUtxYDbHNxX18IG9iChdG7YnVhJQy2iLEygoHh7LOpDR21b4/XsNnMXgG3aJOqxwWCYuIns5H8a9Wpqn/GC8Wj1TdusSseKS6VtG04pFo2Yim1QDJrnXrWROMVMUqslY8kuHLhS2BkKxeAmrPh2/rPvr28J94/bC+qnw4PT1d3nRu/7evNvWny2vRcPsH);lineShape=1;strokeColor=#FF0000;" parent="1" vertex="1">
          <mxGeometry x="126.78868691502595" y="39.672453977143704" width="36.16588812602406" height="36.218320652245374" as="geometry" />
        </mxCell>
      </root>
    </mxGraphModel>
  </diagram>
</mxfile>
